<?xml version="1.0" standalone="no"?>
<!DOCTYPE svg PUBLIC "-//W3C//DTD SVG 20010904//EN"
 "http://www.w3.org/TR/2001/REC-SVG-20010904/DTD/svg10.dtd">
<svg version="1.0" xmlns="http://www.w3.org/2000/svg"
 width="501.000000pt" height="501.000000pt" viewBox="0 0 501.000000 501.000000"
 preserveAspectRatio="xMidYMid meet">
<metadata>
Created by potrace 1.11, written by Peter Selinger 2001-2013
</metadata>
<g transform="translate(0.000000,501.000000) scale(0.100000,-0.100000)"
fill="#000000" stroke="none">
<path d="M1618 2689 c-15 -8 -18 -25 -18 -112 0 -56 -5 -178 -12 -272 -6 -93
-11 -209 -10 -257 1 -79 0 -89 -19 -98 -39 -21 -70 -9 -86 35 -25 69 -53 166
-78 272 -28 116 -102 352 -117 370 -20 24 -78 33 -115 18 -56 -23 -52 -17
-153 -290 -23 -60 -61 -164 -86 -229 -24 -66 -44 -124 -44 -130 0 -5 -9 -20
-21 -32 -17 -18 -24 -20 -44 -10 -13 6 -26 22 -30 36 -3 14 -8 152 -12 307 -5
235 -8 285 -21 295 -8 7 -42 14 -76 15 -56 1 -64 -1 -94 -30 -35 -34 -107
-150 -143 -232 -21 -49 -22 -49 -32 -25 -35 84 -101 210 -124 238 -35 41 -91
61 -144 52 -22 -4 -42 -10 -46 -13 -7 -8 -5 -139 7 -416 5 -118 7 -218 5 -222
-3 -3 -18 -9 -34 -12 -39 -8 -48 -38 -24 -80 l19 -32 118 -3 c132 -3 146 2
146 54 0 37 -21 54 -65 54 -25 0 -26 2 -20 43 3 23 2 121 -4 217 -5 96 -7 177
-5 179 2 2 17 -25 33 -60 16 -35 38 -75 49 -89 10 -14 27 -40 36 -57 14 -29
22 -33 55 -33 38 0 41 3 94 83 30 45 69 108 88 140 31 53 60 79 44 40 -15 -39
-20 -114 -15 -233 6 -143 -5 -216 -31 -223 -15 -4 -17 -13 -14 -43 2 -22 4
-42 4 -47 2 -21 71 -28 253 -28 156 0 204 3 226 15 49 26 52 64 6 85 -14 6
-34 11 -44 11 -22 0 -24 8 -11 43 9 22 16 25 98 31 48 4 115 9 148 13 l61 5
19 -41 18 -42 -22 -16 c-15 -10 -21 -22 -18 -34 3 -11 0 -22 -5 -25 -6 -4 6
-17 27 -30 33 -19 48 -22 108 -19 38 3 72 7 75 9 2 3 14 -1 26 -9 22 -16 132
-21 154 -6 14 8 28 300 25 520 -2 120 -5 122 82 -44 32 -60 81 -150 111 -200
29 -49 57 -108 62 -130 5 -22 18 -58 28 -80 19 -40 20 -40 81 -43 84 -4 86 1
78 181 -8 194 -24 462 -31 519 -6 45 -5 46 26 53 40 9 58 44 42 80 -11 24 -14
25 -114 25 -57 0 -109 -4 -116 -9 -8 -4 -16 -27 -19 -50 -5 -39 -4 -42 26 -52
30 -11 31 -13 33 -77 4 -94 4 -302 0 -302 -1 0 -25 46 -52 103 -64 131 -162
284 -232 358 -28 31 -76 38 -110 18z m-368 -390 c51 -162 52 -158 -50 -159
-36 -1 -84 -5 -107 -9 -42 -8 -43 -8 -36 18 3 14 11 40 17 56 14 39 119 235
126 235 3 0 25 -64 50 -141z"/>
<path d="M3588 2663 c-10 -11 -18 -34 -18 -52 0 -27 5 -34 36 -47 32 -13 35
-18 29 -42 -3 -14 -6 -144 -6 -288 l1 -262 -30 -7 c-17 -4 -30 -11 -30 -16 0
-5 -8 -9 -18 -9 -20 0 -58 111 -117 344 -40 155 -91 317 -109 341 -6 9 -28 20
-49 24 -30 7 -45 5 -78 -13 -35 -18 -45 -31 -70 -90 -15 -38 -40 -105 -55
-150 -15 -44 -31 -87 -37 -93 -5 -7 -7 -13 -3 -13 4 0 -2 -17 -12 -37 -11 -21
-38 -94 -62 -162 -24 -67 -49 -128 -56 -135 -6 -7 -14 -21 -17 -32 -2 -10 -6
8 -7 41 -4 106 -10 119 -55 127 -33 5 -43 3 -57 -14 -10 -11 -18 -30 -18 -43
0 -29 -110 -134 -142 -136 -104 -7 -176 22 -217 86 -59 93 -84 172 -85 265 0
117 24 165 118 237 73 56 89 60 166 42 57 -13 75 -29 90 -85 7 -24 17 -47 21
-50 5 -3 9 -17 9 -31 0 -25 1 -25 48 -18 26 4 52 11 57 16 6 6 12 63 14 129
l3 118 -32 17 c-42 21 -74 16 -78 -12 -2 -13 -5 -23 -6 -23 -2 0 -25 12 -52
27 -75 42 -155 39 -254 -8 -41 -20 -96 -55 -122 -78 -39 -35 -51 -54 -73 -121
-22 -67 -26 -94 -24 -172 2 -51 8 -120 14 -154 13 -70 69 -175 117 -220 36
-34 113 -64 163 -64 18 0 47 -5 64 -11 36 -13 82 -3 156 32 22 11 41 16 43 11
1 -5 9 -18 16 -28 14 -18 15 -18 53 1 29 15 67 21 160 25 118 5 124 6 150 33
l28 28 -28 25 c-15 13 -39 24 -53 24 -16 0 -24 6 -24 18 0 42 20 49 163 61 76
6 143 9 148 5 16 -9 43 -78 33 -81 -24 -9 -32 -21 -35 -52 -4 -30 0 -36 30
-52 28 -15 48 -17 105 -12 39 3 196 5 349 4 185 -1 285 3 299 10 14 8 23 8 31
0 6 -6 50 -11 104 -11 103 0 147 14 158 51 9 28 -27 58 -67 59 -30 0 -33 6
-19 43 9 22 16 25 98 31 48 4 115 9 149 13 l61 5 17 -42 c17 -43 12 -59 -18
-60 -4 0 -6 -11 -4 -25 3 -14 1 -28 -5 -32 -5 -3 7 -16 28 -29 33 -19 48 -22
108 -19 78 5 102 20 109 66 5 33 -5 45 -40 51 -17 2 -28 14 -39 43 -25 69 -53
166 -78 272 -27 115 -102 352 -117 370 -5 7 -25 17 -44 23 -30 10 -41 9 -81
-12 -39 -19 -49 -31 -65 -73 -31 -81 -112 -301 -163 -440 -50 -138 -57 -155
-81 -195 -14 -24 -15 -22 -13 36 1 33 -1 66 -5 72 -4 7 -27 12 -51 12 -41 0
-45 -3 -51 -27 -3 -16 -8 -34 -10 -41 -3 -11 -33 -13 -137 -11 -72 2 -141 5
-151 8 -18 4 -19 14 -13 284 4 154 10 283 13 286 3 3 19 5 37 6 31 0 32 1 35
51 l3 52 -43 6 c-24 3 -77 9 -118 12 -66 5 -77 4 -92 -13z m-291 -369 c51
-156 52 -153 -42 -154 -33 -1 -81 -5 -107 -9 -27 -4 -48 -5 -48 -2 0 40 135
320 147 307 3 -3 26 -67 50 -142z m1253 131 c0 -9 19 -72 42 -141 48 -145 49
-143 -52 -144 -36 -1 -84 -5 -107 -9 -42 -8 -43 -8 -36 18 12 50 28 87 83 189
53 98 70 119 70 87z"/>
<path d="M4713 143 c9 -2 25 -2 35 0 9 3 1 5 -18 5 -19 0 -27 -2 -17 -5z"/>
<path d="M4833 123 c26 -2 47 -8 47 -14 0 -5 19 -8 43 -7 40 1 40 1 7 5 -19 3
-39 9 -44 14 -6 5 -30 8 -55 7 l-46 -2 48 -3z"/>
<path d="M4980 90 c0 -6 7 -10 15 -10 8 0 15 2 15 4 0 2 -7 6 -15 10 -8 3 -15
1 -15 -4z"/>
</g>
</svg>
